<svg xmlns="http://www.w3.org/2000/svg" version="1.1" xmlns:xlink="http://www.w3.org/1999/xlink" xmlns:svgjs="http://svgjs.dev/svgjs" width="1000" height="623" viewBox="0 0 1000 623"><g transform="matrix(1,0,0,1,-0.6060606060606233,0.2522267206477977)"><svg viewBox="0 0 396 247" data-background-color="#471aa0" preserveAspectRatio="xMidYMid meet" height="623" width="1000" xmlns="http://www.w3.org/2000/svg" xmlns:xlink="http://www.w3.org/1999/xlink"><g id="tight-bounds" transform="matrix(1,0,0,1,0.2400000000000091,-0.09999999999999432)"><svg viewBox="0 0 395.52 247.2" height="247.2" width="395.52"><g><svg></svg></g><g><svg viewBox="0 0 395.52 247.2" height="247.2" width="395.52"><g transform="matrix(1,0,0,1,75.54432,66.25668309455587)"><svg viewBox="0 0 244.43135999999998 114.68663381088825" height="114.68663381088825" width="244.43135999999998"><g><svg viewBox="0 0 244.43135999999998 114.68663381088825" height="114.68663381088825" width="244.43135999999998"><g><svg viewBox="0 0 244.43135999999998 114.68663381088825" height="114.68663381088825" width="244.43135999999998"><g><svg viewBox="0 0 244.43135999999998 114.68663381088825" height="114.68663381088825" width="244.43135999999998"><g><svg viewBox="0 0 244.43135999999998 114.68663381088825" height="114.68663381088825" width="244.43135999999998"><g><svg viewBox="0 0 244.43135999999998 114.68663381088825" height="114.68663381088825" width="244.43135999999998"><g transform="matrix(1,0,0,1,0,0)"><svg width="244.43135999999998" viewBox="2.700000047683716 -32.75 69.80000305175781 32.75" height="114.68663381088825" data-palette-color="#a437db"><path d="M5.45 0L2.7 0 2.7-32.75 5.45-32.75 5.45-17.55 19.55-17.55 19.55-32.75 22.3-32.75 22.3 0 19.55 0 19.55-15 5.45-15 5.45 0ZM38.4-13.45L38.4-13.45Q35.7-13.3 34.9-13.3L34.9-13.3 30.8-13.3 30.8 0 28.05 0 28.05-32.75 35.4-32.75Q41.5-32.75 44.35-30.65 47.2-28.55 47.2-23.25L47.2-23.25Q47.2-19.7 45.77-17.55 44.35-15.4 41.2-14.05L41.2-14.05Q44.6-7.6 47.4 0L47.4 0 44.4 0Q41.65-7.3 38.4-13.45ZM35.3-30.25L35.3-30.25 30.8-30.25 30.8-15.8 34.8-15.8Q39.4-15.8 41.85-17.48 44.3-19.15 44.3-23.25 44.3-27.35 42.12-28.8 39.95-30.25 35.3-30.25ZM61.05-30.2L52.4-30.2 52.4-32.75 72.5-32.75 72.5-30.2 63.8-30.2 63.8 0 61.05 0 61.05-30.2Z" opacity="1" transform="matrix(1,0,0,1,0,0)" fill="#a437db" class="undefined-text-0" data-fill-palette-color="primary" id="text-0"></path></svg></g></svg></g></svg></g></svg></g></svg></g></svg></g></svg></g><g><path d="M245.816 0c68.262 0 123.6 55.338 123.6 123.6 0 68.262-55.338 123.6-123.6 123.6-41.892 0-78.915-20.841-101.27-52.719l6.386 0c21.598 28.865 56.059 47.548 94.884 47.548 65.406 0 118.429-53.022 118.428-118.429 0-65.406-53.022-118.429-118.428-118.429-38.825 0-73.286 18.683-94.884 47.548l-6.386 0c22.354-31.879 59.378-52.719 101.27-52.719z" fill="#a437db" stroke="transparent" data-fill-palette-color="tertiary"></path></g></svg></g><defs></defs></svg><rect width="395.52" height="247.2" fill="none" stroke="none" visibility="hidden"></rect></g></svg></g></svg>